{"title":"The.Curious.Case.of.Benjamin.Button.2008.1080p.BluRay.x264.DTS-E","uid":11730986,"size":16162669333,"categoryP":"video","categoryS":"hd___movies","magnet":"?xt=urn:btih:97be1b22a29a432b20b1a18c22dc9115c56fa2d9&amp;dn=The.Curious.Case.of.Benjamin.Button.2008.1080p.BluRay.x264.DTS-E&amp;tr=udp%3A%2F%2Ftracker.openbittorrent.com%3A80&amp;tr=udp%3A%2F%2Fopen.demonii.com%3A1337&amp;tr=udp%3A%2F%2Ftracker.coppersurfer.tk%3A6969&amp;tr=udp%3A%2F%2Fexodus.desync.com%3A6969","seeders":6,"leechers":2,"uploader":null,"files":2,"time":1425400694,"description":"Video\nID                                       : 1\nFormat                                   : AVC\nFormat/Info                              : Advanced Video Codec\nFormat profile                           : &lt;a class=&quot;__cf_email__&quot; href=&quot;/cdn-cgi/l/email-protection&quot; data-cfemail=&quot;98d0f1fff0d8d4acb6a9&quot;&gt;[email&amp;#160;protected]&lt;/a&gt;&lt;script cf-hash='f9e31' type=&quot;text/javascript&quot;&gt;\n/* &lt;![CDATA[ */!function(){try{var t=&quot;currentScript&quot;in document?document.currentScript:function(){for(var t=document.getElementsByTagName(&quot;script&quot;),e=t.length;e--;)if(t[e].getAttribute(&quot;cf-hash&quot;))return t[e]}();if(t&amp;&amp;t.previousSibling){var e,r,n,i,c=t.previousSibling,a=c.getAttribute(&quot;data-cfemail&quot;);if(a){for(e=&quot;&quot;,r=parseInt(a.substr(0,2),16),n=2;a.length-n;n+=2)i=parseInt(a.substr(n,2),16)^r,e+=String.fromCharCode(i);e=document.createTextNode(e),c.parentNode.replaceChild(e,c)}}}catch(u){}}();/* ]]&gt; */&lt;/script&gt;\nFormat settings, CABAC                   : Yes\nFormat settings, ReFrames                : 5 frames\nCodec ID                                 : V_MPEG4/ISO/AVC\nDuration                                 : 2h 46mn\nBit rate                                 : 11.4 Mbps\nWidth                                    : 1 920 pixels\nHeight                                   : 800 pixels\nDisplay aspect ratio                     : 2.40:1\nFrame rate mode                          : Constant\nFrame rate                               : 23.976 fps\nColor space                              : YUV\nChroma subsampling                       : 4:2:0\nBit depth                                : 8 bits\nScan type                                : Progressive\nBits/(Pixel*Frame)                       : 0.309\nStream size                              : 12.9 GiB (86%)\nWriting library                          : x264 core 67 r1145M d2e1e1c\nEncoding settings                        : cabac=1 / ref=5 / deblock=1:-3:-3 / analyse=0x3:0x113 / me=umh / subme=9 / psy_rd=0.8:0.8 / mixed_ref=1 / me_range=32 / chroma_me=1 / trellis=2 / 8x8dct=1 / cqm=0 / deadzone=21,11 / chroma_qp_offset=-4 / threads=3 / nr=0 / decimate=1 / mbaff=0 / bframes=6 / b_pyramid=1 / b_adapt=2 / b_bias=0 / direct=3 / wpredb=1 / keyint=250 / keyint_min=25 / scenecut=40 / rc=2pass / bitrate=11392 / ratetol=1.0 / qcomp=0.60 / qpmin=10 / qpmax=51 / qpstep=4 / cplxblur=20.0 / qblur=0.5 / ip_ratio=1.40 / pb_ratio=1.30 / aq=1:0.80\nLanguage                                 : English\nDefault                                  : Yes\nForced                                   : No\n\nAudio #1\nID                                       : 2\nFormat                                   : DTS\nFormat/Info                              : Digital Theater Systems\nMode                                     : 16\nFormat settings, Endianness              : Big\nCodec ID                                 : A_DTS\nDuration                                 : 2h 46mn\nBit rate mode                            : Constant\nBit rate                                 : 1 509 Kbps\nChannel(s)                               : 6 channels\nChannel positions                        : Front: L C R, Side: L R, LFE\nSampling rate                            : 48.0 KHz\nBit depth                                : 24 bits\nCompression mode                         : Lossy\nStream size                              : 1.75 GiB (12%)\nTitle                                    : DTS, 5.1, 1536 kbps\nLanguage                                 : English\nDefault                                  : Yes\nForced                                   : No\n\nAudio #2\nID                                       : 15\nFormat                                   : Vorbis\nFormat settings, Floor                   : 1\nCodec ID                                 : A_VORBIS\nDuration                                 : 2h 46mn\nBit rate mode                            : Variable\nBit rate                                 : 80.0 Kbps\nChannel(s)                               : 2 channels\nSampling rate                            : 48.0 KHz\nCompression mode                         : Lossy\nStream size                              : 95.0 MiB (1%)\nTitle                                    : English Commentary, Ogg Vorbis, 2.0\nWriting library                          : libVorbis 1.2 (UTC 2007-06-22)\nLanguage                                 : English\nDefault                                  : No\nForced                                   : No\n\nText #1\nID                                       : 3\nFormat                                   : ASS\nCodec ID                                 : S_TEXT/ASS\nCodec ID/Info                            : Advanced Sub Station Alpha\nCompression mode                         : Lossless\nLanguage                                 : English\nDefault                                  : Yes\nForced                                   : No\n\nText #2\nID                                       : 4\nFormat                                   : ASS\nCodec ID                                 : S_TEXT/ASS\nCodec ID/Info                            : Advanced Sub Station Alpha\nCompression mode                         : Lossless\nLanguage                                 : Bulgarian\nDefault                                  : No\nForced                                   : No\n\nText #3\nID                                       : 5\nFormat                                   : ASS\nCodec ID                                 : S_TEXT/ASS\nCodec ID/Info                            : Advanced Sub Station Alpha\nCompression mode                         : Lossless\nLanguage                                 : scr\nDefault                                  : No\nForced                                   : No\n\nText #4\nID                                       : 6\nFormat                                   : ASS\nCodec ID                                 : S_TEXT/ASS\nCodec ID/Info                            : Advanced Sub Station Alpha\nCompression mode                         : Lossless\nLanguage                                 : Czech\nDefault                                  : No\nForced                                   : No\n\nText #5\nID                                       : 7\nFormat                                   : ASS\nCodec ID                                 : S_TEXT/ASS\nCodec ID/Info                            : Advanced Sub Station Alpha\nCompression mode                         : Lossless\nLanguage                                 : Greek\nDefault                                  : No\nForced                                   : No\n\nText #6\nID                                       : 8\nFormat                                   : ASS\nCodec ID                                 : S_TEXT/ASS\nCodec ID/Info                            : Advanced Sub Station Alpha\nCompression mode                         : Lossless\nLanguage                                 : Hungarian\nDefault                                  : No\nForced                                   : No\n\nText #7\nID                                       : 9\nFormat                                   : ASS\nCodec ID                                 : S_TEXT/ASS\nCodec ID/Info                            : Advanced Sub Station Alpha\nCompression mode                         : Lossless\nLanguage                                 : Polish\nDefault                                  : No\nForced                                   : No\n\nText #8\nID                                       : 10\nFormat                                   : ASS\nCodec ID                                 : S_TEXT/ASS\nCodec ID/Info                            : Advanced Sub Station Alpha\nCompression mode                         : Lossless\nLanguage                                 : Portuguese\nDefault                                  : No\nForced                                   : No\n\nText #9\nID                                       : 11\nFormat                                   : ASS\nCodec ID                                 : S_TEXT/ASS\nCodec ID/Info                            : Advanced Sub Station Alpha\nCompression mode                         : Lossless\nLanguage                                 : Romanian\nDefault                                  : No\nForced                                   : No\n\nText #10\nID                                       : 12\nFormat                                   : ASS\nCodec ID                                 : S_TEXT/ASS\nCodec ID/Info                            : Advanced Sub Station Alpha\nCompression mode                         : Lossless\nLanguage                                 : Slovenian\nDefault                                  : No\nForced                                   : No\n\nText #11\nID                                       : 13\nFormat                                   : ASS\nCodec ID                                 : S_TEXT/ASS\nCodec ID/Info                            : Advanced Sub Station Alpha\nCompression mode                         : Lossless\nLanguage                                 : Spanish\nDefault                                  : No\nForced                                   : No\n\nText #12\nID                                       : 14\nFormat                                   : ASS\nCodec ID                                 : S_TEXT/ASS\nCodec ID/Info                            : Advanced Sub Station Alpha\nCompression mode                         : Lossless\nLanguage                                 : Serbian\nDefault                                  : No\nForced                                   : No","torrent":{"xt":"urn:btih:97be1b22a29a432b20b1a18c22dc9115c56fa2d9","amp;dn":"The.Curious.Case.of.Benjamin.Button.2008.1080p.BluRay.x264.DTS-E","amp;tr":["udp%3A%2F%2Ftracker.openbittorrent.com%3A80","udp%3A%2F%2Fopen.demonii.com%3A1337","udp%3A%2F%2Ftracker.coppersurfer.tk%3A6969","udp%3A%2F%2Fexodus.desync.com%3A6969"],"infoHash":"97be1b22a29a432b20b1a18c22dc9115c56fa2d9","infoHashBuffer":{"type":"Buffer","data":[151,190,27,34,162,154,67,43,32,177,161,140,34,220,145,21,197,111,162,217]},"announce":[],"urlList":[]}}